<svg xmlns="http://www.w3.org/2000/svg" width="256" height="256"><path fill-opacity=".016" d="M0 128.004v128.004l128.25-.254 128.25-.254.254-127.75L257.008 0H0v128.004m.485.496c0 70.4.119 99.053.265 63.672.146-35.38.146-92.98 0-128C.604 29.153.485 58.1.485 128.5" fill="#1976D2" fill-rule="evenodd"/><path fill-opacity=".075" d="M176 75.174v75.175l-2.25-1.99c-9.839-8.701-27.282-10.925-40.006-5.1-7.26 3.325-14.537 10.581-18.304 18.254-2.658 5.413-2.94 6.946-2.94 15.987 0 8.196.397 10.86 2.203 14.77 1.211 2.624 11.511 18.037 22.887 34.25L158.275 256h13.362c7.35 0 13.363-.195 13.363-.433s-11.199-16.43-24.886-35.983c-16.38-23.401-25.11-36.748-25.542-39.053-2.502-13.336 12.597-23.364 23.965-15.915 1.4.917 5.968 6.554 10.152 12.526L176.296 188H199V98.52l19.064 18.99c19.643 19.567 20.782 20.912 22.007 25.99.398 1.65.77-29.962.827-70.25L241 0h-65v75.174M88.254 57.239L69.019 76.475l-8.508-8.464-8.508-8.464-7.502 7.452C40.376 71.097 37 74.916 37 75.487c0 .57 7.202 8.228 16.005 17.018l16.004 15.981 27.241-27.24 27.24-27.241-8-8-8.001-8.001-19.235 19.235M15.217 172.25l.283 11.25h75l.283-11.25.283-11.25H14.934l.283 11.25m0 43l.283 11.25h75l.283-11.25.283-11.25H14.934l.283 11.25" fill="#1976D2" fill-rule="evenodd"/><path fill-opacity=".117" d="M177 75c0 41.25-.229 75-.509 75-.279 0-2.337-1.325-4.572-2.944-9.873-7.151-26.332-8.857-37.137-3.847-19.438 9.012-27.956 31.485-18.979 50.071 1.483 3.071 11.697 18.432 22.697 34.136l20 28.553 13.372.016c10.547.012 13.169-.249 12.41-1.235-.53-.687-11.915-16.942-25.301-36.121-23.086-33.08-24.355-35.135-24.701-40-.677-9.544 6.058-16.629 15.807-16.629 6.662 0 10.237 2.878 18.913 15.23l7.5 10.678 10.75.046L198 188v-45c0-24.75.353-45 .784-45 1.747 0 39.201 38.727 40.621 42.002 1.374 3.17 1.52-3.23 1.556-68.252L241 0h-64v75M88.505 57.995L69.53 76.99l-8.537-8.497-8.536-8.497-7.723 7.769-7.724 7.769 15.757 15.733C61.432 99.92 68.976 107 69.529 107c.553 0 12.91-11.928 27.458-26.506l26.451-26.506-7.444-7.494C111.9 42.372 108.309 39 108.015 39c-.294 0-9.074 8.548-19.51 18.995m-72.826 103.66c-.374.373-.679 5.328-.679 11.012V183h76.068l-.284-10.75-.284-10.75-37.071-.262c-20.39-.144-37.377.043-37.75.417m0 43c-.374.373-.679 5.328-.679 11.012V226h76.068l-.284-10.75-.284-10.75-37.071-.262c-20.39-.144-37.377.043-37.75.417" fill="#1976D2" fill-rule="evenodd"/><path fill-opacity=".268" d="M176.756 75.502l-.256 75.503-4.981-3.542c-7.062-5.021-13.931-6.784-24.467-6.28-7.591.363-9.43.844-15.098 3.95-7.746 4.243-13.824 11.248-16.942 19.523-2.986 7.925-2.542 21.578.921 28.344 1.267 2.475 11.498 17.662 22.735 33.75L159.099 256h12.451c6.847 0 12.45-.234 12.45-.519 0-.286-10.993-16.207-24.429-35.38-14.748-21.045-24.845-36.406-25.48-38.762-1.502-5.578.238-10.988 4.993-15.524 5.1-4.864 10.775-5.855 17.216-3.007 3.832 1.695 5.779 3.777 12.718 13.597L177.212 188H198V96.519l19.984 19.965c10.991 10.981 20.656 21.326 21.477 22.99 1.339 2.713 1.496-4.336 1.516-68.224L241 0H177.013l-.257 75.502M88.254 58.24L69.019 77.475l-8.507-8.463-8.507-8.463-7.003 6.949C41.151 71.319 38 74.914 38 75.485c0 .572 6.977 8.006 15.505 16.52l15.505 15.481 26.74-26.74 26.74-26.74-7.501-7.501-7.5-7.5L88.254 58.24M16 172.5V183h74v-21H16v10.5m0 43V226h74v-21H16v10.5" fill="#1976D2" fill-rule="evenodd"/></svg>