<svg xmlns="http://www.w3.org/2000/svg" width="256" height="256"><path fill-opacity=".071" d="M0 128.004v128.004l128.25-.254 128.25-.254.254-127.75L257.008 0H0v128.004m.485.496c0 70.4.119 99.053.265 63.672.146-35.38.146-92.98 0-128C.604 29.153.485 58.1.485 128.5" fill="#1976D2" fill-rule="evenodd"/><path fill-opacity=".122" d="M64 4v4H38.712c-24.236 0-25.474.094-29.75 2.25-3.26 1.644-5.068 3.452-6.712 6.712L0 21.424v221.152l2.25 4.462c1.644 3.26 3.452 5.068 6.712 6.712l4.462 2.25h90.558c87.809 0 90.78-.061 97.854-2.022 14.681-4.068 29.181-13.223 37.657-23.775 6-7.469 13.21-22.039 14.947-30.203 1.341-6.304 1.393-5.76 1.74 18 .196 13.475.352-25.675.345-87-.009-82.772-.1-91.532-.351-34-.303 69.123-.489 76.797-1.728 71-.764-3.575-3.492-10.775-6.063-16-3.939-8.007-6.104-10.929-13.778-18.593-7.307-7.297-10.784-9.927-17.605-13.316l-8.5-4.224-.5-48.683-.5-48.684-2.401-3.367c-4.652-6.522-7.497-7.086-35.849-7.111L144 8V0H64v4M.483 132c0 61.325.12 86.413.267 55.75.147-30.662.147-80.837 0-111.5C.603 45.588.483 70.675.483 132M16 105.5V187h53v53l34.75-.032 34.75-.031-2.769-2.066c-4.296-3.205-13.394-15.379-16.754-22.42-8.647-18.118-9.339-40.808-1.792-58.783 11.277-26.86 37.531-44.605 66.065-44.653L192 112V24h-46.711l-.615 6.584c-.713 7.638-3.211 12.349-8.176 15.417-3.262 2.016-4.605 2.1-32.683 2.029-29.14-.072-29.299-.084-32.892-2.462C66.129 42.395 64 37.639 64 30.099V24H16v81.5m32-33.54V80h17.084l-.292-7.75-.292-7.75-8.25-.29-8.25-.291v8.041m34.174-5.646c-2.979 3.172-2.913 8.643.14 11.512C84.601 79.974 85.056 80 120.14 80h35.511l2.175-2.314c2.979-3.172 2.913-8.643-.14-11.512C155.399 64.026 154.944 64 119.86 64H84.349l-2.175 2.314M48 103.96V112h17.084l-.292-7.75-.292-7.75-8.25-.29-8.25-.291v8.041m34.174-5.646c-2.979 3.172-2.913 8.643.14 11.512C84.575 111.949 85.27 112 112.14 112c27.464 0 27.515-.004 29.686-2.314 2.979-3.172 2.913-8.643-.14-11.512C139.425 96.051 138.73 96 111.86 96c-27.464 0-27.515.004-29.686 2.314M48 135.96V144h17.084l-.292-7.75-.292-7.75-8.25-.29-8.25-.291v8.041m34.174-5.646c-2.979 3.172-2.913 8.643.14 11.512 2.1 1.972 3.384 2.174 13.826 2.174 10.74 0 11.657-.155 13.686-2.314 2.979-3.172 2.913-8.643-.14-11.512-2.1-1.972-3.384-2.174-13.826-2.174-10.74 0-11.657.155-13.686 2.314M48 167.96V176h17.084l-.292-7.75-.292-7.75-8.25-.29-8.25-.291v8.041m159.242-5.917c-1.242.494-10.368 7.702-20.28 16.017l-18.023 15.118-3.972-3.589c-4.842-4.374-8.904-4.743-12.512-1.134-4.49 4.49-3.48 7.524 5.683 17.068 4.476 4.663 8.638 8.47 9.25 8.46 1.616-.024 47.887-38.805 49.327-41.342 1.797-3.168 1.547-5.241-.965-8.004-2.698-2.968-5.454-3.808-8.508-2.594" fill="#1976D2" fill-rule="evenodd"/><path fill-opacity=".168" d="M64.189 18.93c.34 20.71.571 21.559 7.194 26.508 2.617 1.955 4.271 2.077 31.979 2.354 29.119.29 29.23.284 32.654-2.024 1.89-1.274 4.46-3.834 5.71-5.69 2.16-3.205 2.274-4.293 2.274-21.726V0H63.879l.31 18.93M48 72v8h16V64H48v8m34.636-5.364c-3.391 3.391-3.461 7.63-.181 10.909L84.909 80h70.182l2.454-2.455C159.093 75.998 160 73.948 160 72s-.907-3.998-2.455-5.545L155.091 64H85.273l-2.637 2.636M48 104v8h16V96H48v8m34.636-5.364c-3.391 3.391-3.461 7.63-.181 10.909L84.909 112h54.182l2.454-2.455c1.548-1.547 2.455-3.597 2.455-5.545s-.907-3.998-2.455-5.545L139.091 96H85.273l-2.637 2.636m90.9 14.427c-17.192 2.648-34.73 12.647-45.07 25.695-5.646 7.126-11.918 19.657-14.133 28.242-2.226 8.625-2.228 25.362-.004 34 .92 3.575 3.74 10.708 6.266 15.852 3.792 7.72 6.104 10.868 13.249 18.035 13.418 13.46 27.592 19.786 46.668 20.829 12.609.689 22.866-1.657 36.392-8.322 25.989-12.807 41.908-42.511 38.214-71.31-3.739-29.157-22.311-51.503-50.618-60.904-7.132-2.368-22.509-3.42-30.964-2.117M48 136v8h16v-16H48v8m34.636-5.364c-3.391 3.391-3.461 7.63-.181 10.909C84.766 143.856 85.558 144 96 144s11.234-.144 13.545-2.455c1.548-1.547 2.455-3.597 2.455-5.545s-.907-3.998-2.455-5.545c-2.306-2.307-3.114-2.455-13.363-2.455-10.454 0-11.019.11-13.546 2.636M48 168v8h16v-16H48v8m151.809-1.075c-4.02 3.259-12.709 10.437-19.309 15.952l-12 10.026-3.5-3.308c-4.426-4.184-6.177-4.778-10.079-3.417-3.822 1.332-6.396 6.493-4.999 10.024.5 1.264 4.707 6.048 9.348 10.631l8.439 8.333 21.896-18.22C218.237 173.12 218 173.351 218 169.258c0-4.322-3.763-8.258-7.895-8.258-2.157 0-5.017 1.646-10.296 5.925M17 187.757c0 .417 11.7 12.451 26 26.743l26 25.986V187H43c-14.3 0-26 .341-26 .757" fill="#1976D2" fill-rule="evenodd"/><path fill-opacity=".231" d="M64.171 18.25c.311 17.237.462 18.465 2.734 22.118 4.411 7.096 6.795 7.585 37.133 7.61 25.555.021 26.704-.061 31-2.228 3.26-1.644 5.068-3.452 6.712-6.712 2.075-4.114 2.25-5.81 2.25-21.75V0H63.841l.33 18.25M48.417 65.355c-.286.746-.384 4.233-.218 7.75L48.5 79.5l7.75.292 7.75.292V64h-7.531c-5.415 0-7.678.381-8.052 1.355M85 65.273c-3.781 1.944-5.434 6.049-3.805 9.448 2.485 5.181 3.529 5.312 40.143 5.035l33.837-.256 2.486-2.891c2.822-3.282 2.566-6.73-.751-10.109-1.876-1.911-3.465-2.011-35.687-2.256-25.919-.196-34.302.042-36.223 1.029M48.417 97.355c-.286.746-.384 4.233-.218 7.75l.301 6.395 7.75.292 7.75.292V96h-7.531c-5.415 0-7.678.381-8.052 1.355M85 97.269c-3.782 1.951-5.434 6.054-3.805 9.452 2.365 4.932 4.267 5.248 31.632 5.264l25.327.015 3.025-3.025c2.439-2.439 2.896-3.554 2.36-5.75-.366-1.499-1.548-3.625-2.628-4.725-1.848-1.883-3.471-2.015-27.687-2.261-19.472-.197-26.332.053-28.224 1.03m-36.583 32.086c-.286.746-.384 4.233-.218 7.75l.301 6.395 7.75.292 7.75.292V128h-7.531c-5.415 0-7.678.381-8.052 1.355M85 129.246c-3.788 1.989-5.432 6.081-3.805 9.475 1.987 4.143 5.267 5.248 15.632 5.264 9.056.015 9.415-.073 12.352-3.01 2.439-2.439 2.896-3.554 2.36-5.75-1.359-5.568-3.667-6.698-14.315-7.008-6.586-.192-10.531.141-12.224 1.029m-36.583 32.109c-.286.746-.384 4.233-.218 7.75l.301 6.395 7.75.292 7.75.292V160h-7.531c-5.415 0-7.678.381-8.052 1.355M29.811 200.75c7.016 7.012 18.478 18.487 25.473 25.499L68 238.999V188H17.055l12.756 12.75" fill="#1976D2" fill-rule="evenodd"/></svg>