<svg xmlns="http://www.w3.org/2000/svg" width="256" height="256"><path fill-opacity=".016" d="M0 128.004v128.004l128.25-.254 128.25-.254.254-127.75L257.008 0H0v128.004m.485.496c0 70.4.119 99.053.265 63.672.146-35.38.146-92.98 0-128C.604 29.153.485 58.1.485 128.5" fill="#1976D2" fill-rule="evenodd"/><path fill-opacity=".147" d="M85.5 1.054c-6.998 1.693-9.349 3.055-13.035 7.554L68.866 13H36v10h-6c-5.733 0-6 .111-6 2.5V28H13.571c-8.147 0-10.772.344-12 1.571C.162 30.981 0 42.595 0 142.449c0 92.564.229 111.496 1.358 112.434.993.823 27.619 1.058 98.75.872l97.392-.255.5-46.5.5-46.5 19.089-35.5c10.499-19.525 22.06-41.125 25.692-48 3.632-6.875 7.97-14.975 9.64-18l3.037-5.5.276 99 .276 99 .037-112c.021-61.6-.111-107.832-.292-102.738l-.33 9.262-2.213-2.428c-2.464-2.705-15.121-9.598-17.613-9.592-3.171.007-7.648 3.834-10.08 8.617-6.854 13.478-26.343 49.999-27.124 50.829-.528.56-.895-12.668-.895-32.215 0-38.921 1.303-35.552-13.562-35.052l-9.442.317.002-2.75c.002-2.692-.124-2.75-5.943-2.75h-5.945l-.305-4.75-.305-4.75-16-.258-16-.257-4.56-4.893c-2.862-3.07-6.029-5.342-8.5-6.097C112.348.439 90.681-.199 85.5 1.054m9.55 4.853c-.78 1.457-.577 2.456.86 4.23 1.614 1.994 2.283 2.181 4.726 1.322C105.797 9.644 104.493 4 98.913 4c-1.773 0-3.227.718-3.863 1.907M.483 142.5c0 61.6.12 86.653.267 55.673.147-30.98.147-81.38 0-112C.603 55.553.483 80.9.483 142.5m42.411-73.799c-.883.215-4.425 4.645-7.872 9.844-3.447 5.2-6.618 9.455-7.047 9.455-.429 0-1.235-1.308-1.792-2.906-1.171-3.357-4.213-4.683-7.145-3.114-2.897 1.55-2.562 4.76 1.405 13.465 3.153 6.918 3.691 7.555 6.39 7.555 2.644 0 3.904-1.359 12.279-13.25C48.99 75.725 50.377 71.93 46.5 69.543c-1.1-.677-2.722-1.056-3.606-.842M58 96.5V107h128V86H58v10.5m-15.602 30.113c-.606.25-3.969 4.715-7.473 9.921-3.505 5.206-6.609 9.456-6.898 9.444-.29-.012-1.202-1.474-2.027-3.25-2.428-5.225-9-4.663-9 .77 0 1.239 1.564 5.683 3.475 9.877 3.152 6.918 3.74 7.625 6.34 7.625 2.548 0 3.935-1.525 12.507-13.75 10.052-14.336 11.529-18.189 7.744-20.215-2.037-1.09-2.868-1.165-4.668-.422M58 154.5V165h104.728l4.848-9.75 5.22-10.5c.204-.412-25.542-.75-57.213-.75H58v10.5m48.25 47.26l-48.25.259V223h128v-21h-19.189l-7.116 7.619c-3.913 4.191-7.267 7.165-7.452 6.609-.186-.556.368-4.051 1.23-7.766.861-3.716 1.445-6.802 1.297-6.859-.149-.057-21.982.014-48.52.157" fill="#1976D2" fill-rule="evenodd"/><path fill-opacity=".196" d="M87.526.999c-7.627 1.379-11.994 3.787-15.603 8.604L68.628 14H36v9H24V49.013l75.25-.257 75.25-.256.316-7.5c.174-4.125.029-9.862-.322-12.75l-.638-5.25H162v-9h-31.814l-4.174-4.985c-3.273-3.91-5.289-5.321-9.343-6.54C110.376.583 94.319-.23 87.526.999m8.697 3.558C92.225 7.357 93.986 12 99.045 12c3.664 0 6.455-3.197 5.062-5.799C103.154 4.42 100.951 3 99.141 3c-.383 0-1.696.701-2.918 1.557m133.966 34.481c-2.569 2.394-6.361 9.457-5.525 10.293.547.546-5.199 11.602-6.584 12.669-1.229.946-.577 3.909 1.144 5.204 1.575 1.183-.297 5.096-21.5 44.955-20.526 38.586-23.606 43.844-26.508 45.25-4.215 2.042-4.508 2.005-3.216-.409.589-1.1.839-2 .556-2-1.89 0-5.453 11.687-10.591 34.742-3.264 14.642-5.809 26.747-5.656 26.9.152.153 9.033-8.95 19.734-20.228 17.766-18.724 19.925-21.393 24.841-30.71 2.961-5.612 14.367-27.079 25.347-47.704 10.979-20.625 20.077-38.463 20.216-39.64.238-2.007 4.159-9.258 5.602-10.36.36-.275.597-1.669.527-3.098-.093-1.865.302-2.491 1.398-2.218 1.869.466 6.026-6.491 6.026-10.085 0-4.881-2.213-7.577-9.545-11.624-8.2-4.526-12.887-5.085-16.266-1.937M12.71 74.624c-.391.39-.71 7.834-.71 16.543V107h32V83.611l-2.25 3.06c-1.238 1.682-4.275 6.05-6.75 9.706-7.144 10.552-10.07 10.268-15.368-1.487-4.175-9.263-4.282-9.992-1.803-12.235 2.751-2.49 5.755-2.002 8.389 1.364l2.362 3.018 4.21-5.969C35.105 77.784 37 74.9 37 74.658c0-.751-23.54-.785-24.29-.034M12 148.5V165h32l-.052-11.75c-.051-11.362-.109-11.668-1.75-9.283-6.508 9.459-11.956 16.526-13.448 17.445-2.819 1.736-4.913-.302-9.076-8.833-4.161-8.53-4.274-12.051-.431-13.473 3.27-1.21 5.66-.194 7.382 3.136.85 1.643 1.877 2.599 2.283 2.123C30.501 142.497 37 132.967 37 132.498c0-.274-5.625-.498-12.5-.498H12v16.5m160.202-.978c-1.197 2.463-1.966 4.478-1.709 4.478.677 0 4.718-8.123 4.265-8.575-.209-.21-1.36 1.634-2.556 4.097M12 206.5V223h32v-33H12v16.5" fill="#1976D2" fill-rule="evenodd"/><path fill-opacity=".14" d="M96.911.422c-.232.232-3.063.666-6.292.964-9.19.849-12.629 2.431-18.063 8.311l-4.981 5.389-15.038-.148L37.5 14.79l-.5 4.355-.5 4.355-5.464.5c-5.296.485-5.488.608-6.237 4-.425 1.925-.717 7.212-.65 11.75l.123 8.25h149.851l-.311-11.75-.312-11.75-5.697-.298-5.697-.299-.303-4.553-.303-4.554-15.5.117-15.5.118-4-4.955c-4.766-5.903-8.55-7.644-19.64-9.034-9.496-1.191-9.385-1.184-9.949-.62M95.75 4.08c-2.645 1.541-2.183 5.59.865 7.587 2.344 1.536 2.888 1.561 5.243.239 3.263-1.831 3.856-4.46 1.575-6.98-1.904-2.104-4.948-2.439-7.683-.846m135.459 34.486c-1.863 1.305-6.209 8.187-6.209 9.831 0 .651 26.055 14.891 26.444 14.453C252.89 61.22 256 53.59 256 51.675c0-3.636-3.299-7.106-10.535-11.084-7.123-3.915-10.81-4.439-14.256-2.025m-18.173 82.648c-12.906 24.293-23.427 44.87-23.382 45.727.314 5.895.856 8.945 1.477 8.305.398-.41 2.61-4.346 4.917-8.746 2.306-4.4 13.627-25.697 25.158-47.327 19.698-36.953 20.854-39.412 19.129-40.719-1.009-.765-2.285-1.395-2.835-1.4-.55-.005-11.559 19.867-24.464 44.16M153.85 208.5c-.862 4.125-1.424 7.5-1.249 7.5.463 0 9.849-10.068 10.168-10.906.209-.55-5.932-4.094-7.094-4.094-.142 0-.963 3.375-1.825 7.5" fill="#1976D2" fill-rule="evenodd"/></svg>