<svg xmlns="http://www.w3.org/2000/svg" width="256" height="256"><path fill-opacity=".071" d="M0 128.004v128.004l128.25-.254 128.25-.254.254-127.75L257.008 0H0v128.004m.485.496c0 70.4.119 99.053.265 63.672.146-35.38.146-92.98 0-128C.604 29.153.485 58.1.485 128.5" fill="#1976D2" fill-rule="evenodd"/><path fill-opacity=".16" d="M7.241 1.988c-1.793 1.096-4.157 3.46-5.253 5.253C.021 10.455-.003 12.146.247 129.233L.5 247.967l3.767 3.766 3.766 3.767 118.818.262 118.818.262 3.39-2.285c1.864-1.256 4.076-3.624 4.915-5.262.839-1.637 1.863-3.127 2.276-3.31.412-.184.714-53.509.671-118.5-.043-64.992-.314-117.581-.601-116.865-.323.808-1.148.076-2.171-1.929-.907-1.777-2.919-4.163-4.472-5.302-2.813-2.064-3.244-2.072-121-2.324C12.145-.003 10.455.021 7.241 1.988M.484 128c0 65.175.12 91.838.266 59.25.146-32.587.146-85.912 0-118.5C.604 36.163.484 62.825.484 128m45.76-80.172c-.994.631-1.202 18.746-1 87.234L45.5 221.5h165l.256-85.891c.186-62.628-.05-86.259-.873-87.25C209.087 47.4 206.14 47 199.878 47H191v15H65V47l-8.75.015c-4.812.009-9.315.374-10.006.813M76.762 81.25c-2.203 2.338-3.7 3.688-3.325 3 .523-.96-1.534-1.25-8.878-1.25H55v24l13.25-.001H81.5l-.116-8.535c-.091-6.667.259-9.019 1.601-10.749 3.843-4.957 4.209-6.521 2.038-8.692-2.832-2.832-3.716-2.594-8.261 2.227m-14.949 5.433c.721.289 1.584.253 1.916-.079.332-.332-.258-.568-1.312-.525-1.165.048-1.402.285-.604.604M93 99.509v8.508l53.75-.258 53.75-.259.29-8.25.291-8.25H93v8.509m-14.961 24.949C75.781 126.862 75.092 127 65.326 127H55v25h26.5v-7.915c0-6.618-.226-7.727-1.381-6.769-.759.63.481-1.512 2.757-4.76 3.738-5.337 4.004-6.105 2.766-7.981-1.977-2.992-4.86-3.037-7.603-.117M93 144v8h108v-16H93v8m-27.25 6.662c.688.278 1.813.278 2.5 0 .688-.277.125-.504-1.25-.504s-1.937.227-1.25.504M55 184.529v12.529l13.067-.279 13.066-.279.184-12.25L81.5 172H55v12.529M93 189v8h108v-16H93v8" fill="#1976D2" fill-rule="evenodd"/><path fill-opacity=".256" d="M9.5 1.496C4.932 3.124 1.464 6.932.596 11.271.268 12.91 0 65.988 0 129.224 0 256.443-.412 248.43 6.373 253.27L9.5 255.5l116.819.266c114.036.26 116.924.22 121.237-1.688 3.263-1.443 4.878-2.95 6.181-5.766.969-2.097 2.101-3.962 2.513-4.145.413-.184.75-52.796.75-116.917 0-64.121-.288-116.296-.639-115.944-.352.351-1.475-1.051-2.497-3.116-1.022-2.065-3.322-4.64-5.111-5.723C245.573.544 242.892.495 129.5.285 31.222.103 12.889.289 9.5 1.496M.484 128.5c0 64.35.119 90.528.266 58.173.146-32.355.146-85.005 0-117C.603 37.678.484 64.15.484 128.5M115.69 26.031c-5.201 1.314-7.608 2.718-10.45 6.096L102.822 35H75v8h-5c-4.303 0-5 .274-5 1.964 0 1.798-.824 1.988-9.75 2.25l-9.75.286v175l80.5.275c44.275.152 81.515.03 82.755-.27l2.256-.546-.256-87.229-.255-87.23-9.75-.286c-8.926-.262-9.75-.452-9.75-2.25 0-1.687-.697-1.964-4.94-1.964h-4.939l-.311-3.75-.31-3.75-13.489-.281-13.49-.28-3.51-3.41c-1.931-1.876-4.861-3.933-6.511-4.573-3.93-1.523-22.939-2.155-27.81-.925m9.799 2.353c-.939.687-1.539 2.118-1.334 3.182.283 1.471 1.207 1.934 3.859 1.934 3.007 0 3.486-.328 3.486-2.385 0-2.957-3.517-4.555-6.011-2.731M74.156 85.072l-5.293 7.072-2.384-2.572c-2.864-3.09-4.571-3.233-6.969-.583-1.744 1.927-1.694 2.199 1.595 8.75 2.756 5.488 3.89 6.818 6.022 7.066 2.306.267 3.621-1.042 10.75-10.699C82.345 88.055 86 82.495 86 81.752 86 79.764 83.895 78 81.524 78c-1.407 0-3.782 2.28-7.368 7.072m6.138 37.576c-.664.269-3.544 3.643-6.402 7.497l-5.195 7.008-2.175-2.728c-1.722-2.159-2.711-2.594-4.739-2.085-3.839.963-3.988 2.931-.761 10.048 2.85 6.287 5.125 8.284 8.087 7.102C71.179 148.664 86 127.926 86 125.855c0-1.45-2.926-4.091-4.184-3.776-.174.043-.859.299-1.522.569" fill="#1976D2" fill-rule="evenodd"/><path fill-opacity=".392" d="M74.403 85.5c-3.105 4.125-5.934 7.5-6.287 7.5-.353 0-1.086-1.013-1.629-2.25-.707-1.611-1.836-2.25-3.973-2.25-4.122 0-4.365 2.489-.94 9.654 2.664 5.575 5.198 7.723 7.459 6.325C70.738 103.426 86 82.796 86 81.545 86 79.835 83.838 78 81.824 78c-1.042 0-4.11 3.1-7.421 7.5m1.184 43.187c-2.481 3.197-5.163 6.709-5.961 7.803-1.42 1.948-1.475 1.935-2.66-.665-1.356-2.975-3.861-4.023-6.324-2.645-2.242 1.255-1.991 3.368 1.166 9.82 2.116 4.323 3.25 5.565 5.298 5.803 2.277.264 3.658-1.107 10.931-10.852 6.681-8.952 8.12-11.48 7.291-12.803-2.221-3.545-5.041-2.521-9.741 3.539" fill="#1976D2" fill-rule="evenodd"/></svg>